<mxfile host="65bd71144e">
    <diagram id="QuHzsonc-o-wzBC_NktF" name="Page-1">
        <mxGraphModel dx="1198" dy="718" grid="1" gridSize="10" guides="1" tooltips="1" connect="1" arrows="1" fold="1" page="1" pageScale="1" pageWidth="1700" pageHeight="1100" background="#FFFFFF" math="0" shadow="0">
            <root>
                <mxCell id="0"/>
                <mxCell id="1" parent="0"/>
                <mxCell id="hmEEvKpHz4kotGHlBTcp-2" value="" style="rounded=1;whiteSpace=wrap;html=1;fontSize=20;fillColor=none;arcSize=2;dashed=1;" parent="1" vertex="1">
                    <mxGeometry x="331" y="441" width="789" height="459" as="geometry"/>
                </mxCell>
                <mxCell id="hmEEvKpHz4kotGHlBTcp-11" value="Deployed Resources" style="rounded=1;whiteSpace=wrap;html=1;fontSize=20;fillColor=none;arcSize=2;dashed=1;labelPosition=center;verticalLabelPosition=bottom;align=center;verticalAlign=top;" parent="1" vertex="1">
                    <mxGeometry x="630" y="460" width="300" height="400" as="geometry"/>
                </mxCell>
                <mxCell id="hmEEvKpHz4kotGHlBTcp-5" value="Deployment/Target&lt;br style=&quot;font-size: 20px;&quot;&gt;Account" style="outlineConnect=0;dashed=0;verticalLabelPosition=middle;verticalAlign=middle;align=left;html=1;shape=mxgraph.aws3.cloud_2;fillColor=#F58534;gradientColor=none;labelPosition=right;fontSize=20;" parent="1" vertex="1">
                    <mxGeometry x="330" y="440" width="60" height="60" as="geometry"/>
                </mxCell>
                <mxCell id="hmEEvKpHz4kotGHlBTcp-6" value="Deploy" style="edgeStyle=orthogonalEdgeStyle;rounded=0;orthogonalLoop=1;jettySize=auto;html=1;entryX=0;entryY=0.5;entryDx=0;entryDy=0;fontSize=20;" parent="1" source="hmEEvKpHz4kotGHlBTcp-7" target="hmEEvKpHz4kotGHlBTcp-11" edge="1">
                    <mxGeometry relative="1" as="geometry"/>
                </mxCell>
                <mxCell id="hmEEvKpHz4kotGHlBTcp-7" value="CAEF/CDK" style="sketch=0;points=[[0,0,0],[0.25,0,0],[0.5,0,0],[0.75,0,0],[1,0,0],[0,1,0],[0.25,1,0],[0.5,1,0],[0.75,1,0],[1,1,0],[0,0.25,0],[0,0.5,0],[0,0.75,0],[1,0.25,0],[1,0.5,0],[1,0.75,0]];outlineConnect=0;fontColor=#232F3E;gradientColor=#4D72F3;gradientDirection=north;fillColor=#3334B9;strokeColor=#ffffff;dashed=0;verticalLabelPosition=bottom;verticalAlign=top;align=center;html=1;fontSize=20;fontStyle=0;aspect=fixed;shape=mxgraph.aws4.resourceIcon;resIcon=mxgraph.aws4.cloud_development_kit;" parent="1" vertex="1">
                    <mxGeometry x="390" y="621" width="78" height="78" as="geometry"/>
                </mxCell>
                <mxCell id="hmEEvKpHz4kotGHlBTcp-15" value="Generated&#10;Role(s)" style="group;labelPosition=center;verticalLabelPosition=top;align=center;verticalAlign=bottom;fontSize=20;" parent="1" vertex="1" connectable="0">
                    <mxGeometry x="700" y="600" width="72" height="68" as="geometry"/>
                </mxCell>
                <mxCell id="hmEEvKpHz4kotGHlBTcp-14" value="" style="rounded=0;whiteSpace=wrap;html=1;verticalAlign=top;fillColor=#C7131F;strokeColor=#ffffff;fontColor=#232F3E;sketch=0;gradientColor=#F54749;gradientDirection=north;dashed=0;fontStyle=0;" parent="hmEEvKpHz4kotGHlBTcp-15" vertex="1">
                    <mxGeometry width="72" height="68" as="geometry"/>
                </mxCell>
                <mxCell id="hmEEvKpHz4kotGHlBTcp-13" value="" style="sketch=0;outlineConnect=0;dashed=0;verticalLabelPosition=bottom;verticalAlign=top;align=center;html=1;fontSize=12;fontStyle=0;aspect=fixed;pointerEvents=1;shape=mxgraph.aws4.role;" parent="hmEEvKpHz4kotGHlBTcp-15" vertex="1">
                    <mxGeometry x="5" y="17" width="60.27" height="34" as="geometry"/>
                </mxCell>
                <mxCell id="hmEEvKpHz4kotGHlBTcp-16" value="Generated Managed&lt;br style=&quot;font-size: 20px&quot;&gt;Policy" style="fillColor=#C7131F;verticalLabelPosition=bottom;sketch=0;html=1;strokeColor=#ffffff;verticalAlign=top;align=center;points=[[0.145,0.145,0],[0.5,0,0],[0.855,0.145,0],[1,0.5,0],[0.855,0.855,0],[0.5,1,0],[0.145,0.855,0],[0,0.5,0]];pointerEvents=1;shape=mxgraph.cisco_safe.compositeIcon;bgIcon=ellipse;resIcon=mxgraph.cisco_safe.capability.policy_configuration;fontSize=20;fontColor=#232F3E;gradientColor=#F54749;gradientDirection=north;dashed=0;fontStyle=0;" parent="1" vertex="1">
                    <mxGeometry x="703" y="720" width="66" height="70" as="geometry"/>
                </mxCell>
                <mxCell id="hmEEvKpHz4kotGHlBTcp-17" style="edgeStyle=orthogonalEdgeStyle;rounded=0;orthogonalLoop=1;jettySize=auto;html=1;entryX=0.495;entryY=0.015;entryDx=0;entryDy=0;entryPerimeter=0;fontSize=20;exitX=0.5;exitY=1;exitDx=0;exitDy=0;" parent="1" source="hmEEvKpHz4kotGHlBTcp-14" target="hmEEvKpHz4kotGHlBTcp-16" edge="1">
                    <mxGeometry relative="1" as="geometry">
                        <mxPoint x="681" y="690" as="sourcePoint"/>
                        <Array as="points">
                            <mxPoint x="736" y="721"/>
                        </Array>
                    </mxGeometry>
                </mxCell>
                <mxCell id="hmEEvKpHz4kotGHlBTcp-20" value="AWS Managed&lt;br&gt;Policies" style="fillColor=#C7131F;verticalLabelPosition=bottom;sketch=0;html=1;strokeColor=#ffffff;verticalAlign=top;align=center;points=[[0.145,0.145,0],[0.5,0,0],[0.855,0.145,0],[1,0.5,0],[0.855,0.855,0],[0.5,1,0],[0.145,0.855,0],[0,0.5,0]];pointerEvents=1;shape=mxgraph.cisco_safe.compositeIcon;bgIcon=ellipse;resIcon=mxgraph.cisco_safe.capability.policy_configuration;fontSize=20;fontColor=#232F3E;gradientColor=#F54749;gradientDirection=north;dashed=0;fontStyle=0;" parent="1" vertex="1">
                    <mxGeometry x="990" y="750" width="66" height="70" as="geometry"/>
                </mxCell>
                <mxCell id="hmEEvKpHz4kotGHlBTcp-21" style="edgeStyle=orthogonalEdgeStyle;rounded=0;orthogonalLoop=1;jettySize=auto;html=1;fontSize=20;exitX=0.75;exitY=1;exitDx=0;exitDy=0;entryX=0.5;entryY=0;entryDx=0;entryDy=0;entryPerimeter=0;" parent="1" source="hmEEvKpHz4kotGHlBTcp-14" target="hmEEvKpHz4kotGHlBTcp-20" edge="1">
                    <mxGeometry relative="1" as="geometry">
                        <Array as="points">
                            <mxPoint x="754" y="710"/>
                            <mxPoint x="1023" y="710"/>
                        </Array>
                    </mxGeometry>
                </mxCell>
                <mxCell id="2" value="IAM Identity&lt;br&gt;Provider" style="sketch=0;points=[[0,0,0],[0.25,0,0],[0.5,0,0],[0.75,0,0],[1,0,0],[0,1,0],[0.25,1,0],[0.5,1,0],[0.75,1,0],[1,1,0],[0,0.25,0],[0,0.5,0],[0,0.75,0],[1,0.25,0],[1,0.5,0],[1,0.75,0]];outlineConnect=0;fontColor=#232F3E;gradientColor=#F54749;gradientDirection=north;fillColor=#C7131F;strokeColor=#ffffff;dashed=0;verticalLabelPosition=bottom;verticalAlign=top;align=center;html=1;fontSize=20;fontStyle=0;aspect=fixed;shape=mxgraph.aws4.resourceIcon;resIcon=mxgraph.aws4.identity_and_access_management;" vertex="1" parent="1">
                    <mxGeometry x="1010" y="470" width="58" height="58" as="geometry"/>
                </mxCell>
                <mxCell id="3" value="Federated&lt;br style=&quot;font-size: 16px&quot;&gt;Assume Role&lt;br style=&quot;font-size: 16px&quot;&gt;Trust (Optional)" style="edgeStyle=orthogonalEdgeStyle;html=1;entryX=0;entryY=0.5;entryDx=0;entryDy=0;entryPerimeter=0;exitX=1;exitY=0.25;exitDx=0;exitDy=0;rounded=0;fontSize=16;" edge="1" parent="1" source="hmEEvKpHz4kotGHlBTcp-14" target="2">
                    <mxGeometry x="-0.1104" relative="1" as="geometry">
                        <Array as="points">
                            <mxPoint x="860" y="617"/>
                            <mxPoint x="860" y="499"/>
                        </Array>
                        <mxPoint y="1" as="offset"/>
                    </mxGeometry>
                </mxCell>
                <mxCell id="4" value="Principal" style="group;labelPosition=center;verticalLabelPosition=top;align=center;verticalAlign=bottom;fontSize=20;" vertex="1" connectable="0" parent="1">
                    <mxGeometry x="1003" y="616" width="72" height="68" as="geometry"/>
                </mxCell>
                <mxCell id="5" value="" style="rounded=0;whiteSpace=wrap;html=1;verticalAlign=top;fillColor=#C7131F;strokeColor=#ffffff;fontColor=#232F3E;sketch=0;gradientColor=#F54749;gradientDirection=north;dashed=0;fontStyle=0;" vertex="1" parent="4">
                    <mxGeometry width="72" height="68" as="geometry"/>
                </mxCell>
                <mxCell id="6" value="" style="sketch=0;outlineConnect=0;dashed=0;verticalLabelPosition=bottom;verticalAlign=top;align=center;html=1;fontSize=12;fontStyle=0;aspect=fixed;pointerEvents=1;shape=mxgraph.aws4.role;" vertex="1" parent="4">
                    <mxGeometry x="5" y="17" width="60.27" height="34" as="geometry"/>
                </mxCell>
                <mxCell id="7" value="Assume Role&lt;br&gt;Trust" style="edgeStyle=orthogonalEdgeStyle;rounded=0;html=1;fontSize=16;exitX=1;exitY=0.75;exitDx=0;exitDy=0;" edge="1" parent="1" source="hmEEvKpHz4kotGHlBTcp-14" target="5">
                    <mxGeometry relative="1" as="geometry"/>
                </mxCell>
            </root>
        </mxGraphModel>
    </diagram>
</mxfile>